<?xml version="1.0" encoding="utf-8"?>
<!-- Generator: Adobe Illustrator 21.0.2, SVG Export Plug-In . SVG Version: 6.00 Build 0)  -->
<svg version="1.1" id="Слой_1" xmlns="http://www.w3.org/2000/svg" xmlns:xlink="http://www.w3.org/1999/xlink" x="0px" y="0px"
	 width="12px" height="12px" viewBox="0 0 12 12" style="enable-background:new 0 0 12 12;" xml:space="preserve">
<style type="text/css">
	.st0{filter:url(#Adobe_OpacityMaskFilter);}
	.st1{fill:#FFFFFF;}
	.st2{mask:url(#mask-2);}
	.st3{fill:#FFFFFF;}
</style>
<title>ico 12 chevron right</title>
<desc>Created with Sketch.</desc>
<g id="ico-12-chevron-right">
	<g id="Stroke-48-Copy-2">
		<path id="path-1_1_" d="M4.1,2.8C3.9,2.6,4,2.3,4.2,2.1C4.4,1.9,4.7,2,4.9,2.2l3,3.5C8,5.9,8,6.1,7.9,6.3l-3,3.5
			C4.7,10,4.4,10.1,4.2,9.9C4,9.7,3.9,9.4,4.1,9.2L6.8,6L4.1,2.8z"/>
	</g>
	<defs>
		<filter id="Adobe_OpacityMaskFilter" filterUnits="userSpaceOnUse" x="0" y="0" width="12" height="12">
			<feColorMatrix  type="matrix" values="1 0 0 0 0  0 1 0 0 0  0 0 1 0 0  0 0 0 1 0"/>
		</filter>
	</defs>
	<mask maskUnits="userSpaceOnUse" x="0" y="0" width="12" height="12" id="mask-2">
		<g class="st0">
			<path id="path-1" class="st1" d="M4.1,2.8C3.9,2.6,4,2.3,4.2,2.1C4.4,1.9,4.7,2,4.9,2.2l3,3.5C8,5.9,8,6.1,7.9,6.3l-3,3.5
				C4.7,10,4.4,10.1,4.2,9.9C4,9.7,3.9,9.4,4.1,9.2L6.8,6L4.1,2.8z"/>
		</g>
	</mask>
	<g id="colors_x2F_brand-black" class="st2">
		<rect id="Black-Color-Copy-3" y="0" class="st3" width="12" height="12"/>
	</g>
</g>
</svg>
