<?xml version="1.0" encoding="UTF-8"?>
<svg width="24px" height="24px" viewBox="0 0 24 24" version="1.1" xmlns="http://www.w3.org/2000/svg" xmlns:xlink="http://www.w3.org/1999/xlink">
    <!-- Generator: Sketch 48.2 (47327) - http://www.bohemiancoding.com/sketch -->
    <title>ico 24 clients</title>
    <desc>Created with Sketch.</desc>
    <defs>
        <path d="M24,12.5019763 C24,13.7912228 23.0372764,14.8566863 21.7918836,15.0183121 C20.8488536,19.6241349 16.7839065,23.0079051 12,23.0079051 C7.21609352,23.0079051 3.15114641,19.6241349 2.20811637,15.0183121 C0.962723636,14.8566863 0,13.7912228 0,12.5019763 C0,11.1228627 1.10161491,9.99981706 2.47243721,9.96524703 C3.77733274,5.85754956 7.6016117,2.99209486 12,2.99209486 C16.3983883,2.99209486 20.2226673,5.85754956 21.5275628,9.96524703 C22.8983851,9.99981706 24,11.1228627 24,12.5019763 Z M22.9090909,12.5019763 C22.9090909,11.7035861 22.2608407,11.055336 21.4624506,11.055336 C21.3977212,11.055336 21.3236744,11.0634529 21.2224416,11.081099 C20.9443234,11.1295784 20.6751715,10.9578301 20.6019736,10.6851728 C19.563885,6.81836426 16.0556127,4.08300395 12,4.08300395 C7.94438733,4.08300395 4.43611504,6.81836426 3.39802642,10.6851728 C3.32482846,10.9578301 3.0556766,11.1295784 2.77755843,11.081099 C2.67632557,11.0634529 2.60227884,11.055336 2.53754941,11.055336 C1.73915927,11.055336 1.09090909,11.7035861 1.09090909,12.5019763 C1.09090909,13.3003579 1.73914548,13.9486028 2.53752393,13.9486166 C2.57118945,13.9421735 2.57118945,13.9421735 2.62708079,13.9369907 C2.90935105,13.9172974 3.15981228,14.1167205 3.20385117,14.3962289 C3.88245475,18.7032261 7.60033448,21.916996 12,21.916996 C16.3996655,21.916996 20.1175453,18.7032261 20.7961488,14.3962289 C20.8401877,14.1167205 21.090649,13.9172974 21.3729192,13.9369907 C21.4288105,13.9421735 21.4288105,13.9421735 21.4609896,13.9467358 C22.2611429,13.9483144 22.9090909,13.3001803 22.9090909,12.5019763 Z M7.00960851,13.7419584 C6.8748871,14.0114012 6.54724726,14.1206145 6.27780444,13.9858931 C6.00836163,13.8511717 5.89914835,13.5235318 6.03386975,13.254089 C6.1202059,13.0814167 6.27571577,12.8481519 6.50956231,12.6143054 C6.91530908,12.2085586 7.41938285,11.9565217 8.01581028,11.9565217 C8.61223771,11.9565217 9.11631148,12.2085586 9.52205824,12.6143054 C9.75590478,12.8481519 9.91141466,13.0814167 9.9977508,13.254089 C10.1324722,13.5235318 10.0232589,13.8511717 9.75381611,13.9858931 C9.48437329,14.1206145 9.15673345,14.0114012 9.02201205,13.7419584 C8.98384226,13.6656188 8.89034028,13.5253659 8.75066903,13.3856946 C8.53388615,13.1689117 8.29092435,13.0474308 8.01581028,13.0474308 C7.74069621,13.0474308 7.4977344,13.1689117 7.28095152,13.3856946 C7.14128028,13.5253659 7.04777829,13.6656188 7.00960851,13.7419584 Z M14.977988,13.7419584 C14.8432665,14.0114012 14.5156267,14.1206145 14.2461839,13.9858931 C13.9767411,13.8511717 13.8675278,13.5235318 14.0022492,13.254089 C14.0885853,13.0814167 14.2440952,12.8481519 14.4779418,12.6143054 C14.8836885,12.2085586 15.3877623,11.9565217 15.9841897,11.9565217 C16.5806172,11.9565217 17.0846909,12.2085586 17.4904377,12.6143054 C17.7242842,12.8481519 17.8797941,13.0814167 17.9661302,13.254089 C18.1008517,13.5235318 17.9916384,13.8511717 17.7221956,13.9858931 C17.4527527,14.1206145 17.1251129,14.0114012 16.9903915,13.7419584 C16.9522217,13.6656188 16.8587197,13.5253659 16.7190485,13.3856946 C16.5022656,13.1689117 16.2593038,13.0474308 15.9841897,13.0474308 C15.7090757,13.0474308 15.4661138,13.1689117 15.249331,13.3856946 C15.1096597,13.5253659 15.0161577,13.6656188 14.977988,13.7419584 Z M8.09699909,17.8340221 C7.90270054,17.6038105 7.93181378,17.2596771 8.16202534,17.0653785 C8.3922369,16.87108 8.73637034,16.9001932 8.93066889,17.1304048 C8.98529328,17.1951256 9.16178329,17.332294 9.49296794,17.4847731 C10.0954569,17.7621622 10.9193269,17.9328063 12,17.9328063 C13.0806731,17.9328063 13.9045431,17.7621622 14.5070321,17.4847731 C14.8382167,17.332294 15.0147067,17.1951256 15.0693311,17.1304048 C15.2636297,16.9001932 15.6077631,16.87108 15.8379747,17.0653785 C16.0681862,17.2596771 16.0972995,17.6038105 15.9030009,17.8340221 C15.7474593,18.0183131 15.4433564,18.2546625 14.9632604,18.4757012 C14.213615,18.8208418 13.2341411,19.0237154 12,19.0237154 C10.7658589,19.0237154 9.78638501,18.8208418 9.03673957,18.4757012 C8.55664359,18.2546625 8.25254071,18.0183131 8.09699909,17.8340221 Z M11.0513834,5.52964427 C11.0513834,5.8308905 10.8071751,6.07509881 10.5059289,6.07509881 C10.2046826,6.07509881 9.96047431,5.8308905 9.96047431,5.52964427 L9.96047431,1.54545455 C9.96047431,1.24420832 10.2046826,1 10.5059289,1 C10.8071751,1 11.0513834,1.24420832 11.0513834,1.54545455 L11.0513834,5.52964427 Z M14.0395257,5.52964427 C14.0395257,5.8308905 13.7953174,6.07509881 13.4940711,6.07509881 C13.1928249,6.07509881 12.9486166,5.8308905 12.9486166,5.52964427 L12.9486166,1.54545455 C12.9486166,1.24420832 13.1928249,1 13.4940711,1 C13.7953174,1 14.0395257,1.24420832 14.0395257,1.54545455 L14.0395257,5.52964427 Z M17.027668,6.5256917 C17.027668,6.82693793 16.7834597,7.07114625 16.4822134,7.07114625 C16.1809672,7.07114625 15.9367589,6.82693793 15.9367589,6.5256917 L15.9367589,2.54150198 C15.9367589,2.24025575 16.1809672,1.99604743 16.4822134,1.99604743 C16.7834597,1.99604743 17.027668,2.24025575 17.027668,2.54150198 L17.027668,6.5256917 Z M8.06324111,6.5256917 C8.06324111,6.82693793 7.81903279,7.07114625 7.51778656,7.07114625 C7.21654033,7.07114625 6.97233202,6.82693793 6.97233202,6.5256917 L6.97233202,2.54150198 C6.97233202,2.24025575 7.21654033,1.99604743 7.51778656,1.99604743 C7.81903279,1.99604743 8.06324111,2.24025575 8.06324111,2.54150198 L8.06324111,6.5256917 Z" id="path-1"></path>
    </defs>
    <g id="ico-24-clients" stroke="none" stroke-width="1" fill="none" fill-rule="evenodd">
        <mask id="mask-2" fill="white">
            <use xlink:href="#path-1"></use>
        </mask>
        <use id="Stroke-11037" fill="#FFFFFF" fill-rule="nonzero" xlink:href="#path-1"></use>
        <g id="colors/brand-black" mask="url(#mask-2)" fill="#FFFFFF">
            <rect id="Black-Color-Copy-3" x="0" y="0" width="24" height="24"></rect>
        </g>
    </g>
</svg>