<?xml version="1.0" encoding="UTF-8"?>
<svg width="24px" height="24px" viewBox="0 0 24 24" version="1.1" xmlns="http://www.w3.org/2000/svg" xmlns:xlink="http://www.w3.org/1999/xlink">
    <!-- Generator: Sketch 48.2 (47327) - http://www.bohemiancoding.com/sketch -->
    <title>ico 24 couriers</title>
    <desc>Created with Sketch.</desc>
    <defs>
        <path d="M15.5492056,3.68042278 C15.3752313,3.85439706 15.1005452,3.87594931 14.9015663,3.73123744 C14.7751836,3.63932275 14.5133105,3.48787804 14.1356294,3.33293196 C13.4974486,3.07111417 12.7798209,2.91382592 12,2.91382592 C11.2201791,2.91382592 10.5025514,3.07111417 9.86437057,3.33293196 C9.48668952,3.48787804 9.22481637,3.63932275 9.09843367,3.73123744 C8.89945485,3.87594931 8.62476871,3.85439706 8.45079444,3.68042278 L7.40817281,2.63780116 L6.56424368,16.1406672 C6.55397928,16.3048977 6.46356652,16.4535638 6.32246527,16.5382246 L2,19.1317037 L2,22.0007824 L22,22.0007824 L22,19.1317037 L17.6775347,16.5382246 C17.5364335,16.4535638 17.4460207,16.3048977 17.4357563,16.1406672 L16.5918272,2.63780116 L15.5492056,3.68042278 Z M9.48481421,2.40776335 C10.237598,2.09892896 11.0821307,1.91382592 12,1.91382592 C12.9178693,1.91382592 13.762402,2.09892896 14.5151858,2.40776335 C14.7520553,2.50494058 14.9548665,2.60305888 15.1213924,2.69402243 L16.6681857,1.14722905 C16.9726368,0.842778026 17.4939079,1.03987301 17.5207654,1.46959329 L18.4174134,15.8159614 L22.7572479,18.4198621 C22.9078506,18.5102237 23,18.6729771 23,18.8486085 L23,22.5007824 C23,22.7769248 22.7761424,23.0007824 22.5,23.0007824 L1.5,23.0007824 C1.22385763,23.0007824 1,22.7769248 1,22.5007824 L1,18.8486085 C1,18.6729771 1.09214942,18.5102237 1.24275212,18.4198621 L5.58258657,15.8159614 L6.47923458,1.46959329 C6.5060921,1.03987301 7.02736324,0.842778026 7.33181426,1.14722905 L8.87860764,2.69402243 C9.04513349,2.60305888 9.2479447,2.50494058 9.48481421,2.40776335 Z M8.46183535,14.0628199 L10.7818226,15.6094781 L13.2181774,15.6094781 L15.5381646,14.0628199 L14.8359583,11.2539947 L12.1373606,12.0250227 C12.0475831,12.0506734 11.9524169,12.0506734 11.8626394,12.0250227 L9.16404165,11.2539947 L8.46183535,14.0628199 Z M15.0582916,10.1504552 C15.3300869,10.0727994 15.6121655,10.2357179 15.6807234,10.5099494 L16.5937669,14.1621233 C16.6450163,14.367121 16.5618636,14.5822043 16.3860458,14.6994163 L13.6469153,16.5255032 C13.5647816,16.5802591 13.4682777,16.6094781 13.3695652,16.6094781 L10.6304348,16.6094781 C10.5317223,16.6094781 10.4352184,16.5802591 10.3530847,16.5255032 L7.61395425,14.6994163 C7.43813635,14.5822043 7.35498367,14.367121 7.4062331,14.1621233 L8.31927658,10.5099494 C8.38783446,10.2357179 8.66991309,10.0727994 8.94170839,10.1504552 L12,11.0242528 L15.0582916,10.1504552 Z M14.7826087,8.80513026 C14.7826087,9.08127264 14.5587511,9.30513026 14.2826087,9.30513026 L13.3695652,9.30513026 C12.841953,9.30513026 12.6740477,8.59387202 13.1459584,8.35791667 L14.9720454,7.44487319 C15.2190346,7.32137857 15.5193711,7.42149074 15.6428658,7.66847999 C15.7663604,7.91546924 15.6662482,8.21580576 15.419259,8.33930038 L14.7633565,8.66725163 C14.7758942,8.71104874 14.7826087,8.75730537 14.7826087,8.80513026 Z M8.58074103,8.33930038 C8.33375178,8.21580576 8.23363961,7.91546924 8.35713423,7.66847999 C8.48062885,7.42149074 8.78096538,7.32137857 9.02795462,7.44487319 L9.93130963,7.89655069 C9.93761166,7.89953815 9.94384116,7.90265346 9.94999488,7.90589332 L10.8540416,8.35791667 C11.3259523,8.59387202 11.158047,9.30513026 10.6304348,9.30513026 L9.7173913,9.30513026 C9.44124893,9.30513026 9.2173913,9.08127264 9.2173913,8.80513026 L9.2173913,8.65762552 L8.58074103,8.33930038 Z M11.0869565,13.8703477 C10.8108141,13.8703477 10.5869565,13.64649 10.5869565,13.3703477 C10.5869565,13.0942053 10.8108141,12.8703477 11.0869565,12.8703477 L12.9130435,12.8703477 C13.1891859,12.8703477 13.4130435,13.0942053 13.4130435,13.3703477 C13.4130435,13.64649 13.1891859,13.8703477 12.9130435,13.8703477 L11.0869565,13.8703477 Z" id="path-1"></path>
    </defs>
    <g id="ico-24-couriers" stroke="none" stroke-width="1" fill="none" fill-rule="evenodd">
        <mask id="mask-2" fill="white">
            <use xlink:href="#path-1"></use>
        </mask>
        <use id="Stroke-390" fill="#FFFFFF" fill-rule="nonzero" xlink:href="#path-1"></use>
        <g id="colors/brand-black" mask="url(#mask-2)" fill="#FFFFFF">
            <rect id="Black-Color-Copy-3" x="0" y="0" width="24" height="24"></rect>
        </g>
    </g>
</svg>