<?xml version="1.0" encoding="UTF-8"?>
<svg width="24px" height="24px" viewBox="0 0 24 24" version="1.1" xmlns="http://www.w3.org/2000/svg" xmlns:xlink="http://www.w3.org/1999/xlink">
    <!-- Generator: Sketch 48.2 (47327) - http://www.bohemiancoding.com/sketch -->
    <title>ico 24 dashboard</title>
    <desc>Created with Sketch.</desc>
    <defs>
        <path d="M1.5,13 C1.22385763,13 1,12.7761424 1,12.5 C1,12.2238576 1.22385763,12 1.5,12 L22.5,12 C22.7761424,12 23,12.2238576 23,12.5 C23,12.7761424 22.7761424,13 22.5,13 L1.5,13 Z M14.5149287,18.6212678 C14.4479544,18.3533704 14.6108347,18.0819031 14.8787322,18.0149287 C15.1466296,17.9479544 15.4180969,18.1108347 15.4850713,18.3787322 L15.9850713,20.3787322 C15.9949863,20.4183925 16,20.4591191 16,20.5 C16,21.3281424 15.3281424,22 14.5,22 L9.5,22 C8.67185763,22 8,21.3281424 8,20.5 C8,20.4591191 8.00501367,20.4183925 8.01492875,20.3787322 L8.51492875,18.3787322 C8.58190311,18.1108347 8.85337036,17.9479544 9.12126781,18.0149287 C9.38916527,18.0819031 9.55204561,18.3533704 9.48507125,18.6212678 L9.00259466,20.5511742 C9.02827566,20.8030515 9.24141736,21 9.5,21 L14.5,21 C14.7585826,21 14.9717243,20.8030515 14.9974053,20.5511742 L14.5149287,18.6212678 Z M3,16 L21,16 C21.5523576,16 22,15.5523576 22,15 L22,4 C22,3.44764237 21.5523576,3 21,3 L3,3 C2.44764237,3 2,3.44764237 2,4 L2,15 C2,15.5523576 2.44764237,16 3,16 Z M3,17 C1.89535763,17 1,16.1046424 1,15 L1,4 C1,2.89535763 1.89535763,2 3,2 L21,2 C22.1046424,2 23,2.89535763 23,4 L23,15 C23,16.1046424 22.1046424,17 21,17 L3,17 Z M11.5,15 C11.2238576,15 11,14.7761424 11,14.5 C11,14.2238576 11.2238576,14 11.5,14 L12.5,14 C12.7761424,14 13,14.2238576 13,14.5 C13,14.7761424 12.7761424,15 12.5,15 L11.5,15 Z M16.8535534,7.14644661 C17.0488155,7.34170876 17.0488155,7.65829124 16.8535534,7.85355339 C16.6582912,8.04881554 16.3417088,8.04881554 16.1464466,7.85355339 L14.0254466,5.73255339 C13.8301845,5.53729124 13.8301845,5.22070876 14.0254466,5.02544661 C14.2207088,4.83018446 14.5372912,4.83018446 14.7325534,5.02544661 L16.8535534,7.14644661 Z M16.1464466,7.14644661 C16.3417088,6.95118446 16.6582912,6.95118446 16.8535534,7.14644661 C17.0488155,7.34170876 17.0488155,7.65829124 16.8535534,7.85355339 L14.7325534,9.97455339 C14.5372912,10.1698155 14.2207088,10.1698155 14.0254466,9.97455339 C13.8301845,9.77929124 13.8301845,9.46270876 14.0254466,9.26744661 L16.1464466,7.14644661 Z M17,7 L19.5,7 C19.7761424,7 20,7.22385763 20,7.5 C20,7.77614237 19.7761424,8 19.5,8 L16.5,8 C16.2238576,8 16,7.77614237 16,7.5 L16,4.5 C16,4.22385763 16.2238576,4 16.5,4 C16.7761424,4 17,4.22385763 17,4.5 L17,7 Z M19,7.5 C19,6.11895678 17.881172,5 16.5,5 C15.118828,5 14,6.11895678 14,7.5 C14,8.88104322 15.118828,10 16.5,10 C17.881172,10 19,8.88104322 19,7.5 Z M20,7.5 C20,9.4333022 18.4334826,11 16.5,11 C14.5665174,11 13,9.4333022 13,7.5 C13,5.5666978 14.5665174,4 16.5,4 C18.4334826,4 20,5.5666978 20,7.5 Z M11.5,10 C11.7761424,10 12,10.2238576 12,10.5 C12,10.7761424 11.7761424,11 11.5,11 L4.5,11 C4.22385763,11 4,10.7761424 4,10.5 C4,10.2238576 4.22385763,10 4.5,10 L11.5,10 Z M5,10.5 C5,10.7761424 4.77614237,11 4.5,11 C4.22385763,11 4,10.7761424 4,10.5 L4,4.5 C4,4.22385763 4.22385763,4 4.5,4 C4.77614237,4 5,4.22385763 5,4.5 L5,10.5 Z M11,10.5 C11,10.7761424 10.7761424,11 10.5,11 C10.2238576,11 10,10.7761424 10,10.5 L10,8.5 C10,8.22385763 10.2238576,8 10.5,8 C10.7761424,8 11,8.22385763 11,8.5 L11,10.5 Z M9,10.5 C9,10.7761424 8.77614237,11 8.5,11 C8.22385763,11 8,10.7761424 8,10.5 L8,6.5 C8,6.22385763 8.22385763,6 8.5,6 C8.77614237,6 9,6.22385763 9,6.5 L9,10.5 Z M6,7.5 C6,7.22385763 6.22385763,7 6.5,7 C6.77614237,7 7,7.22385763 7,7.5 L7,10.5 C7,10.7761424 6.77614237,11 6.5,11 C6.22385763,11 6,10.7761424 6,10.5 L6,7.5 Z" id="path-1"></path>
    </defs>
    <g id="ico-24-dashboard" stroke="none" stroke-width="1" fill="none" fill-rule="evenodd">
        <mask id="mask-2" fill="white">
            <use xlink:href="#path-1"></use>
        </mask>
        <use id="Stroke-244" fill="#FFFFFF" fill-rule="nonzero" xlink:href="#path-1"></use>
        <g id="colors/brand-black" mask="url(#mask-2)" fill="#FFFFFF">
            <rect id="Black-Color-Copy-3" x="0" y="0" width="24" height="24"></rect>
        </g>
    </g>
</svg>