<?xml version="1.0" encoding="UTF-8"?>
<svg width="24px" height="24px" viewBox="0 0 24 24" version="1.1" xmlns="http://www.w3.org/2000/svg" xmlns:xlink="http://www.w3.org/1999/xlink">
    <!-- Generator: Sketch 48.2 (47327) - http://www.bohemiancoding.com/sketch -->
    <title>ico 24 orders list</title>
    <desc>Created with Sketch.</desc>
    <defs>
        <path d="M15.7928932,2 L4.5,2 C4.22364237,2 4,2.22364237 4,2.5 L4,21.5 C4,21.7763576 4.22364237,22 4.5,22 L19.5,22 C19.7763576,22 20,21.7763576 20,21.5 L20,6.20710678 L15.7928932,2 Z M21,21.5 C21,22.3286424 20.3286424,23 19.5,23 L4.5,23 C3.67135763,23 3,22.3286424 3,21.5 L3,2.5 C3,1.67135763 3.67135763,1 4.5,1 L16,1 C16.1326082,1 16.2597852,1.05267842 16.3535534,1.14644661 L20.8535534,5.64644661 C20.9473216,5.7402148 21,5.86739176 21,6 L21,21.5 Z M15,1.5 C15,1.22385763 15.2238576,1 15.5,1 C15.7761424,1 16,1.22385763 16,1.5 L16,5.5 C16,5.77635763 16.2236424,6 16.5,6 L20.5,6 C20.7761424,6 21,6.22385763 21,6.5 C21,6.77614237 20.7761424,7 20.5,7 L16.5,7 C15.6713576,7 15,6.32864237 15,5.5 L15,1.5 Z M7.5,16 C7.22385763,16 7,15.7761424 7,15.5 L7,9.5 C7,9.22385763 7.22385763,9 7.5,9 L16.5,9 C16.7761424,9 17,9.22385763 17,9.5 L17,15.5 C17,15.7761424 16.7761424,16 16.5,16 L7.5,16 Z M8,15 L16,15 L16,10 L8,10 L8,15 Z M7.5,14 C7.22385763,14 7,13.7761424 7,13.5 C7,13.2238576 7.22385763,13 7.5,13 L16.5,13 C16.7761424,13 17,13.2238576 17,13.5 C17,13.7761424 16.7761424,14 16.5,14 L7.5,14 Z M7.5,12 C7.22385763,12 7,11.7761424 7,11.5 C7,11.2238576 7.22385763,11 7.5,11 L16.5,11 C16.7761424,11 17,11.2238576 17,11.5 C17,11.7761424 16.7761424,12 16.5,12 L7.5,12 Z M11,15.5 C11,15.7761424 10.7761424,16 10.5,16 C10.2238576,16 10,15.7761424 10,15.5 L10,9.5 C10,9.22385763 10.2238576,9 10.5,9 C10.7761424,9 11,9.22385763 11,9.5 L11,15.5 Z M14,15.5 C14,15.7761424 13.7761424,16 13.5,16 C13.2238576,16 13,15.7761424 13,15.5 L13,9.5 C13,9.22385763 13.2238576,9 13.5,9 C13.7761424,9 14,9.22385763 14,9.5 L14,15.5 Z" id="path-1"></path>
    </defs>
    <g id="ico-24-orders-list" stroke="none" stroke-width="1" fill="none" fill-rule="evenodd">
        <mask id="mask-2" fill="white">
            <use xlink:href="#path-1"></use>
        </mask>
        <use id="Stroke-75" fill="#FFFFFF" fill-rule="nonzero" xlink:href="#path-1"></use>
        <g id="colors/brand-black" mask="url(#mask-2)" fill="#FFFFFF">
            <rect id="Black-Color-Copy-3" x="0" y="0" width="24" height="24"></rect>
        </g>
    </g>
</svg>