<?xml version="1.0" encoding="UTF-8"?>
<svg width="24px" height="24px" viewBox="0 0 24 24" version="1.1" xmlns="http://www.w3.org/2000/svg" xmlns:xlink="http://www.w3.org/1999/xlink">
    <!-- Generator: Sketch 48.2 (47327) - http://www.bohemiancoding.com/sketch -->
    <title>ico 24 mail</title>
    <desc>Created with Sketch.</desc>
    <defs>
        <path d="M21.722,4 C22.5625384,4 23,4.45095259 23,5.2895 L23,18.7105 C23,19.5770495 22.5832631,20 21.722,20 L2.2775,20 C1.40476186,20 1,19.5818943 1,18.7105 L1,5.2895 C1,4.45106222 1.43734675,4 2.2775,4 L21.722,4 Z M21.722,5 L2.2775,5 C1.99665963,5 2,4.99655487 2,5.2895 L2,18.7105 C2,19.0367375 1.96443495,19 2.2775,19 L21.722,19 C22.0276384,19 22,19.0280505 22,18.7105 L22,5.2895 C22,4.99655449 22.0033424,5 21.722,5 Z M1.51766856,5.16535566 C1.32386872,4.96864208 1.32623076,4.6520684 1.52294434,4.45826856 C1.71965792,4.26446872 2.0362316,4.26683076 2.23003144,4.46354434 L11.5085861,13.8815998 C11.7686621,14.1456682 12.1856078,14.1456682 12.4451839,13.8815288 L21.7451839,4.44252881 C21.9389923,4.24582368 22.2555661,4.24347544 22.4522712,4.43728386 C22.6489763,4.63109228 22.6513246,4.94766606 22.4575161,5.14437119 L13.1579709,14.582909 C12.5070922,15.2452318 11.4480379,15.2452318 10.7961686,14.5833557 L1.51766856,5.16535566 Z" id="path-1"></path>
    </defs>
    <g id="ico-24-mail" stroke="none" stroke-width="1" fill="none" fill-rule="evenodd">
        <mask id="mask-2" fill="white">
            <use xlink:href="#path-1"></use>
        </mask>
        <use id="Stroke-199" fill="#FFFFFF" fill-rule="nonzero" xlink:href="#path-1"></use>
        <g id="colors/brand-black" mask="url(#mask-2)" fill="#FFFFFF">
            <rect id="Black-Color-Copy-3" x="0" y="0" width="24" height="24"></rect>
        </g>
    </g>
</svg>