<?xml version="1.0" encoding="iso-8859-1"?>
<!-- Generator: Adobe Illustrator 19.0.0, SVG Export Plug-In . SVG Version: 6.00 Build 0)  -->
<svg xmlns="http://www.w3.org/2000/svg" xmlns:xlink="http://www.w3.org/1999/xlink" version="1.1" id="Capa_1" x="0px" y="0px" viewBox="0 0 376.49 376.49" style="enable-background:new 0 0 376.49 376.49;" xml:space="preserve" width="512px" height="512px">
<g>
	<g>
		<path d="M294.303,7.954l-0.84-0.52l0.16-0.04c-23.432-14.333-54.029-7.209-68.72,16l-24.64,39.08l-3.6,5.4l-127.52,202.36    l-0.56,0.92c-0.521,0.82-0.836,1.753-0.92,2.72l-8.4,96c-0.124,1.399,0.241,2.798,1.032,3.959    c1.891,2.775,5.673,3.492,8.448,1.601l82.72-48.88c0.918-0.54,1.677-1.312,2.2-2.24l0.44-0.68l127.44-202.32l19.08-30.28    l8.96-14.2C324.157,53.555,317.354,22.887,294.303,7.954z M203.822,79.474l27,17.04l-112,177.6    c-4.563-10.757-15.326-17.55-27-17.04L203.822,79.474z M72.502,359.314l1.72-20l2.08,0.4c4.703,1.178,8.907,3.826,12,7.56    c0.44,0.56,0.88,1.12,1.28,1.72L72.502,359.314z M144.143,316.874l-44,25.96c-4.814-7.443-12.279-12.777-20.88-14.92    c-1.318-0.33-2.653-0.584-4-0.76l4.44-50.92c2.32-3.54,5.949-6.017,10.092-6.888c8.648-1.817,17.131,3.72,18.948,12.368    c0.881,4.119,0.136,8.418-2.08,12c-0.152,0.214-0.289,0.438-0.41,0.671c-1.469,2.822-0.372,6.3,2.45,7.769    c0.129,0.083,0.261,0.161,0.396,0.234c2.86,1.538,6.426,0.466,7.964-2.394c2.237-3.508,5.777-5.983,9.84-6.88    c3.962-0.879,8.111-0.219,11.605,1.846C146.115,299.455,148.638,309.267,144.143,316.874z M156.262,297.594    c-4.606-10.827-15.49-17.62-27.24-17l112-177.6l27.24,17L156.262,297.594z M281.862,98.114l-7.36,11.64l-64.32-40.56l13.68-21.68    l64.4,40.72L281.862,98.114z M299.303,70.354l-4.64,7.4l-64.32-40.52l4.56-7.28c11.193-17.731,34.606-23.093,52.4-12    C305.033,29.148,310.395,52.56,299.303,70.354z" fill="#666666"/>
	</g>
</g>
<g>
</g>
<g>
</g>
<g>
</g>
<g>
</g>
<g>
</g>
<g>
</g>
<g>
</g>
<g>
</g>
<g>
</g>
<g>
</g>
<g>
</g>
<g>
</g>
<g>
</g>
<g>
</g>
<g>
</g>
</svg>
