<?xml version="1.0" encoding="utf-8"?>
<!-- Generator: Adobe Illustrator 21.0.2, SVG Export Plug-In . SVG Version: 6.00 Build 0)  -->
<svg version="1.1" id="Слой_1" xmlns="http://www.w3.org/2000/svg" xmlns:xlink="http://www.w3.org/1999/xlink" x="0px" y="0px"
	 width="290px" height="60px" viewBox="0 0 290 60" style="enable-background:new 0 0 290 60;" xml:space="preserve">
<style type="text/css">
	.st0{fill:#FFFFFF;}
	.st1{fill-rule:evenodd;clip-rule:evenodd;fill:#FFFFFF;}
</style>
<g>
	<path class="st0" d="M111.1,26.7h20.2v4h-7.9v20.5H119V30.7h-7.9V26.7z"/>
	<path class="st0" d="M142.9,49.6c-1.6,1.3-3.8,2-6,2c-5.1,0-8.5-3.3-8.5-8.3c0-4.6,3.2-8.3,8.3-8.3c4.1,0,7.5,2.9,7.5,7.3
		c0,1-0.1,1.6-0.2,2.2h-11.4c0.3,2.4,2.2,3.7,4.7,3.7c1.9,0,3.5-0.7,4.4-1.4L142.9,49.6z M132.4,41.8h7.7c0-1.9-1.3-3.4-3.6-3.4
		C134.1,38.4,132.8,39.7,132.4,41.8z"/>
	<path class="st0" d="M162,48.8c-1.3,1.8-3.7,2.7-6.3,2.7c-5.1,0-8.5-3.3-8.5-8.3c0-4.6,3.4-8.3,8.2-8.3c2.6,0,4.9,0.7,6.3,2.1
		l-1.9,3.2c-1.2-1.2-2.5-1.5-3.9-1.5c-2.2,0-4.4,1.7-4.4,4.5c0,2.8,2.2,4.5,4.6,4.5c1.7,0,3-0.8,4.1-1.9L162,48.8z"/>
	<path class="st0" d="M164.6,26.7h4v10.2c1-1,2.7-1.7,4.5-1.7c3.9,0,6.5,2,6.5,6.9v9.1h-4v-8.6c0-2.3-1.3-3.6-3.5-3.6
		c-1.3,0-2.6,0.5-3.5,1.4v10.8h-4V26.7z"/>
	<path class="st0" d="M183.9,35.4h4V37c0.9-1,2.6-1.9,4.5-1.9c3.9,0,6.5,1.9,6.5,6.8v9.2h-4v-8.5c0-2.5-1.3-3.7-3.5-3.7
		c-1.4,0-2.5,0.6-3.4,1.5v10.7h-4V35.4z"/>
	<path class="st0" d="M210.5,35c5.2,0,8.6,3.5,8.6,8.3s-3.4,8.3-8.6,8.3s-8.6-3.5-8.6-8.3S205.3,35,210.5,35z M210.5,47.8
		c2.5,0,4.3-1.8,4.3-4.5c0-2.7-1.9-4.5-4.3-4.5c-2.4,0-4.3,1.8-4.3,4.5C206.3,45.9,208.1,47.8,210.5,47.8z"/>
	<path class="st0" d="M222.5,26.7h4v18.5c0,1.8,0.4,2.6,1.4,2.6c0.6,0,1.2-0.3,1.6-0.6l0.8,3.1c-0.9,0.7-2.3,1.3-4.2,1.3
		c-2.4,0-3.7-1.5-3.7-4.7V26.7z"/>
	<path class="st0" d="M241.3,35c5.2,0,8.6,3.5,8.6,8.3s-3.4,8.3-8.6,8.3s-8.6-3.5-8.6-8.3S236,35,241.3,35z M241.3,47.8
		c2.5,0,4.3-1.8,4.3-4.5c0-2.7-1.9-4.5-4.3-4.5c-2.4,0-4.3,1.8-4.3,4.5C237,45.9,238.8,47.8,241.3,47.8z"/>
	<path class="st0" d="M256.5,48.4c-0.2-0.3-0.3-0.7-0.3-1.1c0-0.4,0.1-0.8,0.3-1.1c-2.4-0.9-3.7-3-3.7-5.3c0-3.2,2.6-5.9,6.7-5.9
		c1.6,0,2.9,0.4,4,1.1l4.8-1l0.1,3.2l-2.6,0.6c0.2,0.6,0.4,1.3,0.4,2c0,3.2-2.6,5.8-6.7,5.8h-0.3c-0.1,0.2-0.1,0.4-0.1,0.6
		c0,0.3,0.1,0.6,0.2,0.8h0.2c4.6,0,8.2,1.6,8.2,5.1c0,3.5-3.6,5.1-8.2,5.1c-4.6,0-8.2-1.5-8.2-5.1C251.4,50.7,253.5,49.1,256.5,48.4
		z M259.6,55.2c2.7,0,4.4-0.7,4.4-1.9c0-1.2-1.5-1.9-4.4-1.9c-2.9,0-4.4,0.8-4.4,1.9C255.1,54.5,256.9,55.2,259.6,55.2z M259.6,43.5
		c1.7,0,2.9-1,2.9-2.6c0-1.5-1.1-2.7-2.9-2.7c-1.8,0-2.9,1.2-2.9,2.7C256.6,42.4,257.7,43.5,259.6,43.5z"/>
	<path class="st0" d="M282.2,51.2c-2.3,5.6-3.8,7-6.1,7c-1.4,0-2.5-0.6-3.4-1.2l1.3-3c0.4,0.2,1,0.6,1.6,0.6c1,0,1.8-0.8,2.4-2.5
		l0.4-0.8l-7.3-15.8h4.8l3.7,8.6c0.3,0.8,0.5,1.5,0.8,2.3c0.1-0.7,0.3-1.5,0.6-2.3l2.8-8.6h4.6L282.2,51.2z"/>
	<g>
		<path class="st0" d="M80.2,26.6H84l10.4,24.6h-4.6l-2.6-6.3H76.7l-2.6,6.3h-4.3L80.2,26.6z M78.4,40.9h7.2L82,32.2L78.4,40.9z"/>
	</g>
	<g>
		<path class="st0" d="M91.4,35.1l1.5-1.9c0.8,1.2,2,2,3.4,2c1.7,0,2.6-1,2.6-2.2c0-1.5-1.1-2.3-3-2.3h-1.1V28h1
			c1.3,0,2.5-0.8,2.5-2.2c0-1.2-0.7-2-2-2c-1.3,0-2.2,0.6-3,1.7l-1.5-1.9c0.9-1.6,2.6-2.5,4.8-2.5c2.8,0,4.6,1.6,4.6,4.1
			c0,1.8-0.8,3.1-2.5,3.8v0.1c2,0.3,3.1,1.9,3.1,3.8c0,3-2.3,4.8-5.3,4.8C94,37.8,92.2,36.7,91.4,35.1z"/>
	</g>
	<path class="st1" d="M28.6,36.2c2.6,0,4.7,2.1,4.7,4.7c0,2.8-2.4,5-5.2,4.7L21.6,57c-0.1,0.2-0.3,0.5-0.6,0.6
		c-0.4,0.2-0.9,0.2-1.1,0.2H7c-2,0-3.2-2.4-2.3-4l21.1-36.6c1.4-2.3,3.6-1.9,4.5-0.2l19.3,33.6c2.1-0.1,3.8,1.6,3.8,3.6
		c0,2-1.6,3.6-3.6,3.6c-2,0-3.6-1.6-3.6-3.6c0-1.2,0.6-2.2,1.4-2.9c0,0-17-29.7-18.4-32.2c-0.5-0.9-1.4-0.8-1.9,0
		C26.1,21.1,13.6,42.6,7.1,54c-0.4,0.7-0.1,1.6,0.8,1.6c0.9,0,9.3,0,10.9,0c1.2,0,1.3-0.4,1.7-1c0.4-0.6,3.6-6.3,5.5-9.8
		c-1.3-0.8-2.1-2.3-2.1-3.9C23.9,38.3,26,36.2,28.6,36.2L28.6,36.2z M49.8,52.2c1,0,1.9,0.8,1.9,1.9c0,1-0.8,1.9-1.9,1.9
		c-1,0-1.9-0.8-1.9-1.9C47.9,53.1,48.7,52.2,49.8,52.2L49.8,52.2z M28.6,38.1c1.6,0,2.8,1.3,2.8,2.8c0,1.6-1.3,2.8-2.8,2.8
		c-1.6,0-2.8-1.3-2.8-2.8C25.8,39.3,27.1,38.1,28.6,38.1L28.6,38.1z M28.6,38.1"/>
	<path class="st1" d="M56.3,49.7L36.1,14c0.6-0.6,0.9-1.5,0.9-2.4c0-2-1.6-3.6-3.6-3.6c-2,0-3.6,1.6-3.6,3.6c0,2,1.6,3.6,3.6,3.6
		c0.3,0,0.6,0,0.8-0.1l20.1,35.5c0.3,0.6,1.1,0.7,1.5,0.4C56.3,50.8,56.5,50.1,56.3,49.7L56.3,49.7z M33.4,9.7c1,0,1.9,0.8,1.9,1.9
		c0,1-0.8,1.9-1.9,1.9c-1,0-1.9-0.8-1.9-1.9C31.5,10.6,32.4,9.7,33.4,9.7L33.4,9.7z M33.4,9.7"/>
	<path class="st1" d="M57.5,37.6c2,0,3.6,1.6,3.6,3.6c0,2-1.6,3.6-3.6,3.6c-2,0-3.6-1.6-3.6-3.6c0-1,0.4-1.9,1-2.5L34.7,3
		c-0.1-0.1-0.1-0.4-0.1-0.7c0.1-0.3,0.3-0.6,0.6-0.8c0.2-0.1,0.4-0.1,0.6-0.1c0.4,0,0.7,0.3,0.8,0.5l20.2,35.8
		C57,37.6,57.2,37.6,57.5,37.6L57.5,37.6z M57.5,39.3c1,0,1.9,0.8,1.9,1.9c0,1-0.8,1.9-1.9,1.9s-1.9-0.8-1.9-1.9
		C55.6,40.3,56.3,39.3,57.5,39.3z"/>
</g>
</svg>
