<?xml version="1.0" encoding="utf-8"?>
<!-- Generator: Adobe Illustrator 21.0.2, SVG Export Plug-In . SVG Version: 6.00 Build 0)  -->
<svg version="1.1" id="Слой_1" xmlns="http://www.w3.org/2000/svg" xmlns:xlink="http://www.w3.org/1999/xlink" x="0px" y="0px"
	 width="200px" height="200px" viewBox="0 0 200 200" style="enable-background:new 0 0 200 200;" xml:space="preserve">
<style type="text/css">
	.st0{fill:#FFFFFF;}
</style>
<g>
	<path class="st0" d="M196,115.4c-15.9-35.8-31.7-73-47.6-109.7c-3.2-7.3-10.4-6.3-13.2-1.8l-34.9,46.7L65.8,3.9
		c-3.2-4.5-10.4-5-13.2,1.8L4.2,115.9c-2.3,5,1.8,11.3,7.7,10.9h34.5c1.8,0,5.9-0.5,6.8-3.2l14.5-32.7l20.9,27.2
		c-1.8,2.7-3.2,5.9-3.2,9.5c0,8.6,6.8,15.4,15,15.4s15-6.8,15-15.4c0-8.6-6.8-15.4-15-15.4c-1.8,0-3.6,0.5-5.4,0.9L70.4,81.4
		c-1.4-1.8-5.4-3.6-8.6,0.5c-5,11.8-9.5,21.3-14.1,32.2c-1.8,4.1-4.5,4.1-8.2,4.1c-7.3,0-22.7,0-22.7,0c-2.3,0-3.6-2.7-2.7-4.5
		c14.5-32.7,29-65.3,43.5-98c0.5-1.4,2.3-2.3,4.1-1.4c0.9-0.5,1.4,0,1.8,0.5L98,61c1.4,1.8,3.2,1.8,5,0l34-46.3
		c0.5-0.5,0.9-0.9,1.8-1.4c1.4-0.9,3.2,0,4.1,1.4c14.5,32.7,29,65.3,43.5,98c1.4,3.6-1.8,5-2.7,4.5c-5.9,0-18.1,0-26.3,0
		c-2.7,0-3.6,0-5.4-0.9c-3.6-1.8-13.2-14.5-17.7-21.3c1.4-1.8,1.8-4.1,1.8-6.3c0-6.3-5-11.3-11.3-11.3c-6.3,0-11.3,5-11.3,11.3
		c0,6.3,5,11.3,11.3,11.3c0.5,0.9,1.4,0.9,2.3,0.5c5.4,7.3,17.2,22.2,20,24.5c1.4,0.9,3.6,1.4,4.1,1.4h37.2
		C194.2,125.9,197.8,120.4,196,115.4z M100.3,120.9c3.6,0,6.8,3.2,6.8,6.8c0,3.6-3.2,6.8-6.8,6.8c-3.6,0-6.8-3.2-6.8-6.8
		C93.5,123.6,96.7,120.9,100.3,120.9z M124.8,93.7c-2.7,0-4.5-2.3-4.5-4.5c0-2.3,1.8-4.5,4.5-4.5c2.7,0,4.5,2.3,4.5,4.5
		C129.3,91.8,127.5,93.7,124.8,93.7z"/>
	<g>
		<path class="st0" d="M175.7,170.8c-2.9-3-6.8-4.5-11.3-4.5s-8.5,1.5-11.3,4.7c-3.2,3.2-4.5,6.9-4.5,11.8c0,5.1,1.4,8.8,4.5,11.8
			c3.1,3,6.8,4.5,11.3,4.5s8.3-1.5,11.3-4.7c3.1-3,4.5-7.1,4.5-11.8C180.2,177.6,178.7,173.8,175.7,170.8z M170.8,189.5
			c-1.4,1.7-3.8,2.6-6.3,2.6c-2.3,0-4.5-0.9-5.9-2.6c-2.2-2.1-3.1-4.1-3.1-6.7c0-3,0.9-5.1,2.5-6.7s3.8-2.6,6.3-2.6s4.5,0.9,6.3,2.6
			c1.6,1.7,2.5,4.1,2.5,6.7S172.2,187.9,170.8,189.5z"/>
		<polygon class="st0" points="69,186 78.8,186 78.8,179.2 69,179.2 69,173.6 79.8,173.6 79.8,166.7 62.2,166.7 62.2,198.3 
			80.4,198.3 80.4,191.6 69,191.6 		"/>
		<polygon class="st0" points="35.2,180 26.3,166.7 19.5,166.7 19.5,198.3 26.3,198.3 26.3,178.7 34.6,190.9 35.5,190.9 43.8,178.5 
			43.8,198.5 50.5,198.5 50.5,166.7 44,166.7 		"/>
		<polygon class="st0" points="118.9,173.4 127.9,173.4 127.9,173.6 127.9,198.5 134.8,198.5 134.8,173.6 143.6,173.6 143.6,166.7 
			118.9,166.7 		"/>
		<path class="st0" d="M104.5,192.2c-2.5,0-4.9-0.9-6.5-2.6c-1.6-1.7-2.5-4.1-2.5-6.7c0-3,0.9-5.2,2.3-7.1c1.6-1.7,3.8-2.4,5.9-2.4
			c2,0,4,0.6,5.9,2.1l3.1-5.2c-2-2.1-5.4-3.2-9.2-3.2c-4.9,0-8.8,1.5-11.3,4.7c-2.9,3-4,7.1-4,11.8c0,5.1,1.4,8.8,4.3,11.8
			c2.9,3,6.5,4.5,11.3,4.5c2,0,4-0.4,5.8-0.9c1.6-0.6,3.1-1.5,4-2.6l-2.5-6.2C109.2,191.2,107.2,192.2,104.5,192.2z"/>
	</g>
</g>
</svg>
