<?xml version="1.0" encoding="utf-8"?>
<!-- Generator: Adobe Illustrator 21.0.2, SVG Export Plug-In . SVG Version: 6.00 Build 0)  -->
<svg version="1.1" id="Слой_1" xmlns="http://www.w3.org/2000/svg" xmlns:xlink="http://www.w3.org/1999/xlink" x="0px" y="0px"
	 width="93.3px" height="30px" viewBox="0 0 93.3 30" style="enable-background:new 0 0 93.3 30;" xml:space="preserve">
<style type="text/css">
	.st0{fill:none;}
	.st1{fill:#FFFFFF;}
</style>
<path class="st0" d="M37.2,18.1c0-0.4-0.4-0.9-0.9-0.9c-0.5,0-0.9,0.4-0.9,0.9s0.4,0.9,0.9,0.9C36.9,19,37.2,18.6,37.2,18.1z"/>
<path class="st0" d="M32.8,25.7c0-0.7-0.6-1.3-1.3-1.3c-0.7,0-1.3,0.5-1.3,1.3c0,0.7,0.6,1.3,1.3,1.3C32.2,27,32.8,26.4,32.8,25.7z"
	/>
<path class="st0" d="M126.3,10.1c-1.3,0-2.3,0.4-3.1,1.3c-0.8,0.8-1.3,1.8-1.3,3.2c0,1.3,0.4,2.2,1.5,3.2c0.7,0.8,1.8,1.3,3,1.3
	c1.3,0,2.4-0.4,3.1-1.3c0.7-0.8,1.2-2,1.2-3.2s-0.4-2.4-1.3-3.2C128.5,10.5,127.5,10.1,126.3,10.1z"/>
<path class="st0" d="M48,23.6c-1.2,0-3.6,0-5.2,0"/>
<g>
	<path class="st1" d="M23,26.1c0-1.7-1.3-3-3-3c-0.4,0-0.7,0.1-1.1,0.2l-4.8-6.3c-0.3-0.4-1.1-0.7-1.7,0.1c-1,2.3-1.9,4.2-2.8,6.4
		c-0.4,0.8-0.9,0.8-1.6,0.8c-1.4,0-4.5,0-4.5,0c-0.4,0-0.7-0.5-0.5-0.9c2.9-6.5,5.7-12.9,8.6-19.4c0.1-0.3,0.4-0.4,0.8-0.3
		c0.2-0.1,0.3,0,0.4,0.1l6.8,9.1c0.3,0.4,0.6,0.4,1,0l6.7-9.1c0.1-0.1,0.2-0.2,0.4-0.3c0.3-0.2,0.6,0,0.8,0.3
		c2.9,6.5,5.7,12.9,8.6,19.4c0.3,0.7-0.4,1-0.5,0.9c-1.2,0-3.6,0-5.2,0c-0.5,0-0.7,0-1.1-0.2c-0.7-0.4-2.6-2.9-3.5-4.2
		c0.3-0.4,0.4-0.8,0.4-1.3c0-1.3-1-2.2-2.2-2.2c-1.3,0-2.2,1-2.2,2.2s1,2.2,2.2,2.2c0.1,0.2,0.3,0.2,0.4,0.1
		c1.1,1.4,3.4,4.4,3.9,4.8c0.3,0.2,0.7,0.3,0.8,0.3h7.4c1.2-0.1,1.9-1.2,1.5-2.2c-3.1-7.1-6.3-14.4-9.4-21.7
		c-0.6-1.4-2.1-1.3-2.6-0.4L20,10.8l-6.8-9.2c-0.6-0.9-2.1-1-2.6,0.4L1,23.7c-0.4,1,0.4,2.2,1.5,2.2h6.8c0.4,0,1.2-0.1,1.3-0.6
		l2.9-6.5l4.1,5.4c-0.4,0.5-0.6,1.2-0.6,1.9c0,1.7,1.3,3,3,3C21.6,29.1,23,27.8,23,26.1z M23.9,18.4c0-0.4,0.4-0.9,0.9-0.9
		c0.5,0,0.9,0.4,0.9,0.9c0,0.5-0.4,0.9-0.9,0.9C24.3,19.3,23.9,18.9,23.9,18.4z M18.7,26.1c0-0.8,0.6-1.3,1.3-1.3s1.3,0.6,1.3,1.3
		s-0.6,1.3-1.3,1.3S18.7,26.8,18.7,26.1z"/>
	<g>
		<path class="st1" d="M92,5.4c-0.9-0.9-2.1-1.3-3.4-1.3S86,4.5,85.1,5.4c-1,0.9-1.4,2-1.4,3.4c0,1.5,0.4,2.6,1.4,3.4
			c0.9,0.9,2.1,1.3,3.4,1.3s2.5-0.4,3.4-1.4c0.9-0.9,1.4-2.1,1.4-3.4C93.3,7.3,92.9,6.2,92,5.4z M90.5,10.8
			c-0.4,0.5-1.1,0.8-1.9,0.8c-0.7,0-1.4-0.3-1.8-0.8c-0.7-0.6-0.9-1.2-0.9-2c0-0.9,0.3-1.5,0.8-2s1.1-0.8,1.9-0.8
			c0.8,0,1.4,0.3,1.9,0.8c0.5,0.5,0.8,1.2,0.8,2C91.2,9.6,90.9,10.3,90.5,10.8z"/>
		<polygon class="st1" points="59.7,9.8 62.6,9.8 62.6,7.8 59.7,7.8 59.7,6.2 63,6.2 63,4.2 57.6,4.2 57.6,13.4 63.1,13.4 
			63.1,11.4 59.7,11.4 		"/>
		<polygon class="st1" points="49.4,8 46.8,4.2 44.7,4.2 44.7,13.4 46.8,13.4 46.8,7.7 49.3,11.2 49.5,11.2 52,7.6 52,13.4 
			54.1,13.4 54.1,4.2 52.1,4.2 		"/>
		<polygon class="st1" points="74.8,6.1 77.5,6.1 77.5,6.2 77.5,13.4 79.6,13.4 79.6,6.2 82.3,6.2 82.3,4.2 74.8,4.2 		"/>
		<path class="st1" d="M70.4,11.6c-0.8,0-1.5-0.3-2-0.8s-0.8-1.2-0.8-2c0-0.9,0.3-1.5,0.7-2.1c0.5-0.5,1.1-0.7,1.8-0.7
			c0.6,0,1.2,0.2,1.8,0.6l0.9-1.5c-0.6-0.6-1.6-0.9-2.8-0.9c-1.5,0-2.7,0.4-3.4,1.4c-0.9,0.9-1.2,2.1-1.2,3.4c0,1.5,0.4,2.6,1.3,3.4
			c0.9,0.9,2,1.3,3.4,1.3c0.6,0,1.2-0.1,1.7-0.3c0.5-0.2,0.9-0.4,1.2-0.8l-0.8-1.8C71.8,11.3,71.2,11.6,70.4,11.6z"/>
	</g>
	<g>
		<path class="st1" d="M50.8,20.4c0,2.5-1.5,3.9-3.4,3.9c-2,0-3.3-1.5-3.3-3.8c0-2.4,1.5-3.9,3.4-3.9C49.5,16.7,50.8,18.2,50.8,20.4
			z M45.1,20.6c0,1.6,0.9,3,2.4,3c1.5,0,2.4-1.4,2.4-3.1c0-1.5-0.8-3-2.4-3C45.9,17.5,45.1,18.9,45.1,20.6z"/>
		<path class="st1" d="M57.4,16.8v7.4h-1v-6.6H53v6.6h-1v-7.4H57.4z"/>
		<path class="st1" d="M62.9,20.7h-2.9v2.7h3.2v0.8h-4.2v-7.4h4v0.8h-3V20h2.9V20.7z"/>
		<path class="st1" d="M64.5,16.9c0.5-0.1,1.1-0.1,1.8-0.1c0.9,0,1.6,0.2,2.1,0.6c0.4,0.4,0.6,0.9,0.6,1.5c0,0.7-0.2,1.2-0.6,1.6
			c-0.5,0.5-1.3,0.8-2.3,0.8c-0.3,0-0.5,0-0.8-0.1v3h-1V16.9z M65.5,20.5c0.2,0.1,0.5,0.1,0.8,0.1c1.2,0,1.9-0.6,1.9-1.6
			c0-1-0.7-1.4-1.7-1.4c-0.4,0-0.7,0-0.9,0.1V20.5z"/>
		<path class="st1" d="M70.6,21.9l-0.8,2.3h-1l2.5-7.4h1.2l2.5,7.4h-1l-0.8-2.3H70.6z M73.1,21.1L72.3,19c-0.2-0.5-0.3-0.9-0.4-1.4
			h0c-0.1,0.4-0.2,0.9-0.4,1.3l-0.7,2.1H73.1z"/>
		<path class="st1" d="M77.1,17.6h-2.3v-0.8h5.5v0.8H78v6.6h-1V17.6z"/>
		<path class="st1" d="M87.1,20.4c0,2.5-1.5,3.9-3.4,3.9c-2,0-3.3-1.5-3.3-3.8c0-2.4,1.5-3.9,3.4-3.9C85.8,16.7,87.1,18.2,87.1,20.4
			z M81.3,20.6c0,1.6,0.9,3,2.4,3c1.5,0,2.4-1.4,2.4-3.1c0-1.5-0.8-3-2.4-3C82.1,17.5,81.3,18.9,81.3,20.6z"/>
		<path class="st1" d="M88.3,16.9c0.5-0.1,1.1-0.1,1.8-0.1c0.9,0,1.6,0.2,2.1,0.6c0.4,0.4,0.6,0.9,0.6,1.5c0,0.7-0.2,1.2-0.6,1.6
			C91.8,21,91,21.3,90,21.3c-0.3,0-0.5,0-0.8-0.1v3h-1V16.9z M89.3,20.5c0.2,0.1,0.5,0.1,0.8,0.1c1.2,0,1.9-0.6,1.9-1.6
			c0-1-0.7-1.4-1.7-1.4c-0.4,0-0.7,0-0.9,0.1V20.5z"/>
	</g>
</g>
</svg>
